<svg xmlns="http://www.w3.org/2000/svg" width="64" height="70" viewBox="0 0 64 70" role="img" aria-label="Dropper UA">
  <title>Dropper UA</title>
  <g transform="rotate(-8 32 36)">
    <path d="M12 26 C12 14 22 7 32 7 C42 7 52 14 52 26 Q47 32 42 26 Q37 32 32 26 Q27 32 22 26 Q17 32 12 26 Z" fill="#7c3aed"/>
    <path d="M32 8 L12 25 M32 8 L22 26 M32 8 L32 26 M32 8 L42 26 M32 8 L52 25" stroke="#c4b5fd" stroke-width="1.4" fill="none"/>
    <path d="M13 27 L24 45 M25 28 L29 45 M39 28 L35 45 M51 27 L40 45" stroke="#a78bfa" stroke-width="1.2" fill="none"/>
    <rect x="23" y="45" width="18" height="14" rx="3" fill="#6d28d9"/>
    <path d="M23 50 H41" stroke="#a78bfa" stroke-width="1.4"/>
  </g>
</svg>
